<?xml version="1.0" encoding="utf-8"?>
<!-- Generator: Adobe Illustrator 17.1.0, SVG Export Plug-In . SVG Version: 6.00 Build 0)  -->
<!DOCTYPE svg PUBLIC "-//W3C//DTD SVG 1.1//EN" "http://www.w3.org/Graphics/SVG/1.1/DTD/svg11.dtd">
<svg version="1.1" id="Livello_1" xmlns="http://www.w3.org/2000/svg" xmlns:xlink="http://www.w3.org/1999/xlink" x="0px" y="0px"
	 viewBox="0 0 32 32" enable-background="new 0 0 32 32" xml:space="preserve">
<rect y="-0.1" fill="#2BB2D9" width="32" height="32.1"/>
<path fill="#FFFFFF" d="M12.8,4.7h16v3.2h-16V4.7z M12.8,14.4h16v3.2h-16V14.4z M12.8,24h16v3.2h-16V24z M3.2,6.3
	c0-1.8,1.4-3.2,3.2-3.2s3.2,1.4,3.2,3.2S8.1,9.5,6.4,9.5S3.2,8.1,3.2,6.3z M3.2,16c0-1.8,1.4-3.2,3.2-3.2s3.2,1.4,3.2,3.2
	s-1.4,3.2-3.2,3.2S3.2,17.7,3.2,16z M3.2,25.6c0-1.8,1.4-3.2,3.2-3.2s3.2,1.4,3.2,3.2s-1.4,3.2-3.2,3.2S3.2,27.4,3.2,25.6z"/>
</svg>
